<svg width="52" height="52" viewBox="0 0 52 52" fill="none" xmlns="http://www.w3.org/2000/svg">
<path fill-rule="evenodd" clip-rule="evenodd" d="M25.805 6.01029L29.7765 8.82912C30.9465 9.66112 31.9692 10.387 32.682 11.0695C33.4425 11.7953 34.125 12.7248 34.125 13.9945C34.125 15.2598 33.4425 16.1893 32.682 16.9173C31.967 17.5998 30.9465 18.3256 29.7765 19.1555L20.1392 26L29.7765 32.8423C30.9465 33.6721 31.9692 34.3979 32.682 35.0826C33.4425 35.8084 34.125 36.738 34.125 38.0055C34.125 39.273 33.4425 40.2025 32.682 40.9305C31.967 41.6108 30.9465 42.3388 29.7765 43.1686L25.805 45.9896C24.2233 47.1119 22.8908 48.0588 21.7837 48.6243C20.657 49.1984 19.279 49.6318 17.9053 48.9276C16.523 48.2213 16.0745 46.8476 15.8903 45.5996C15.7083 44.3733 15.7083 42.7418 15.7083 40.8113V29.1199L7.43168 34.9136C7.25684 35.036 7.05961 35.1227 6.85125 35.1688C6.6429 35.2149 6.4275 35.2196 6.21735 35.1824C6.0072 35.1453 5.80642 35.0672 5.62648 34.9525C5.44653 34.8377 5.29095 34.6887 5.1686 34.5139C5.04625 34.339 4.95954 34.1418 4.91341 33.9334C4.86729 33.7251 4.86265 33.5097 4.89977 33.2995C4.93689 33.0894 5.01504 32.8886 5.12976 32.7087C5.24447 32.5287 5.3935 32.3731 5.56835 32.2508L14.4993 26L5.56835 19.747C5.3935 19.6246 5.24447 19.469 5.12976 19.2891C5.01504 19.1091 4.93689 18.9083 4.89977 18.6982C4.86265 18.4881 4.86729 18.2727 4.91341 18.0643C4.95954 17.8559 5.04625 17.6587 5.1686 17.4839C5.29095 17.309 5.44653 17.16 5.62648 17.0453C5.80642 16.9306 6.0072 16.8524 6.21735 16.8153C6.4275 16.7782 6.6429 16.7828 6.85125 16.8289C7.05961 16.8751 7.25684 16.9618 7.43168 17.0841L15.7083 22.8778V11.1865C15.7083 9.25595 15.7083 7.62445 15.8903 6.39812C16.0745 5.15012 16.523 3.77645 17.9053 3.07229C19.279 2.36812 20.657 2.79929 21.7837 3.37562C22.8887 3.93895 24.2233 4.88795 25.805 6.01029ZM18.9583 29.1459V40.6791C18.9583 42.7786 18.9627 44.1653 19.1057 45.123C19.1728 45.5866 19.2595 45.8315 19.3223 45.9528C19.3541 46.0033 19.3707 46.0279 19.3722 46.0265L19.383 46.033L19.3982 46.0395C19.4011 46.0423 19.4328 46.0409 19.4935 46.0351C19.6322 46.0156 19.8857 45.9419 20.306 45.7275C21.1727 45.2854 22.3123 44.4816 24.0327 43.2618L27.7962 40.5881C29.094 39.6673 29.9152 39.0779 30.4352 38.5796C30.5926 38.4412 30.7291 38.2806 30.8403 38.103C30.875 38.0401 30.875 38.0185 30.875 38.0076V38.0033C30.875 37.9903 30.875 37.9686 30.8403 37.908C30.7291 37.7303 30.5926 37.5697 30.4352 37.4313C29.9152 36.9329 29.0918 36.3436 27.7962 35.4228L18.9583 29.1459ZM18.9583 22.8518V11.3186C18.9583 9.21912 18.9627 7.83245 19.1057 6.87695C19.1728 6.41112 19.2595 6.16845 19.3223 6.04495C19.3364 6.01875 19.3531 5.99407 19.3722 5.97129L19.383 5.96479L19.3982 5.95829C19.43 5.95622 19.462 5.95767 19.4935 5.96262C19.6322 5.98429 19.8857 6.05579 20.306 6.27029C21.1727 6.71229 22.3123 7.51612 24.0327 8.73595L27.7962 11.4096C29.094 12.3305 29.9152 12.9198 30.4352 13.4181C30.5926 13.5566 30.7291 13.7171 30.8403 13.8948C30.875 13.9576 30.875 13.9793 30.875 13.9901V13.9945C30.875 14.0075 30.875 14.0291 30.8403 14.092C30.7291 14.2696 30.5926 14.4302 30.4352 14.5686C29.9152 15.067 29.0918 15.6541 27.7962 16.575L18.9583 22.8518ZM40.0465 9.65678C40.3583 9.35955 40.7754 9.19829 41.2061 9.20845C41.6367 9.2186 42.0457 9.39935 42.3432 9.71095L42.3453 9.71529L42.3497 9.71745L42.3562 9.72612L42.3778 9.74779L42.432 9.81062C42.4782 9.86117 42.5382 9.93123 42.6118 10.0208C42.757 10.2006 42.9542 10.4541 43.1838 10.79C43.6432 11.4616 44.2368 12.4496 44.8218 13.78C45.9918 16.4493 47.125 20.462 47.125 26C47.125 31.538 45.994 35.5506 44.8218 38.2178C44.3695 39.263 43.8211 40.2639 43.1838 41.2078C42.9359 41.572 42.6661 41.9208 42.3757 42.2521L42.3562 42.2738L42.3497 42.2803L42.3453 42.2846C42.047 42.5873 41.6419 42.7632 41.2169 42.7708C40.7919 42.7783 40.3809 42.6191 40.072 42.3271C39.763 42.0352 39.5808 41.6339 39.5643 41.2091C39.5478 40.7844 39.6983 40.3701 39.9837 40.0551L39.988 40.0486L39.9815 40.053L39.9988 40.0356L40.0942 39.9208C40.2379 39.7428 40.3745 39.5592 40.5037 39.3704C40.8568 38.8548 41.3487 38.0423 41.847 36.9091C42.8393 34.6493 43.875 31.0808 43.875 26C43.875 20.9191 42.8393 17.3506 41.847 15.0886C41.4762 14.2285 41.0265 13.4045 40.5037 12.6273C40.3462 12.3976 40.1777 12.1756 39.9988 11.9621L39.9837 11.9448L39.9858 11.9491M40.0465 9.65678C39.7354 9.95253 39.5539 10.3572 39.5417 10.7863C39.5296 11.2154 39.6877 11.6319 39.9815 11.9448L40.0465 9.65678ZM36.0772 15.8946C36.4585 15.6938 36.9039 15.6527 37.3155 15.7803C37.7271 15.9079 38.0711 16.1937 38.272 16.575V16.5793L38.2763 16.5836L38.2828 16.5988L38.3067 16.6443C38.4304 16.8888 38.5474 17.1366 38.6577 17.3875C38.8765 17.8815 39.1668 18.5835 39.455 19.4371C40.0292 21.1315 40.625 23.4823 40.625 26C40.625 28.5133 40.0292 30.8685 39.455 32.5606C39.1516 33.4586 38.7949 34.3376 38.3868 35.1931L38.3067 35.3534L38.285 35.4011L38.2763 35.4141L38.2742 35.4184L38.272 35.4228C38.0715 35.8043 37.7276 36.0906 37.3159 36.2186C36.9043 36.3466 36.4587 36.3058 36.0772 36.1053C35.6956 35.9047 35.4094 35.5608 35.2814 35.1492C35.1534 34.7376 35.1941 34.292 35.3947 33.9104M35.3947 33.9104L35.4098 33.8823L35.4662 33.7675C35.5196 33.6606 35.5933 33.5017 35.6872 33.2908C35.9435 32.7097 36.1741 32.1176 36.3783 31.5163C36.8875 30.0148 37.375 28.0323 37.375 26C37.375 23.9633 36.8875 21.9851 36.3783 20.4815C36.1024 19.6744 35.779 18.8844 35.4098 18.1155L35.3968 18.0916V18.0895C35.1961 17.7082 35.1549 17.2628 35.2825 16.8512C35.4101 16.4396 35.6959 16.0955 36.0772 15.8946" fill="#6C3205"/>
</svg>
