<svg width="198" height="30" viewBox="0 0 198 30" fill="none" xmlns="http://www.w3.org/2000/svg">
<path d="M0.910156 29V0.367188H22.1406V5.21094H6.69141V11.5586H21.0664V16.3828H6.69141V24.1758H22.6875V29H0.910156ZM45.6367 14.3906L40.2266 15.3672C40.0443 14.2865 39.6276 13.4727 38.9766 12.9258C38.3385 12.3789 37.5052 12.1055 36.4766 12.1055C35.1094 12.1055 34.0156 12.5807 33.1953 13.5312C32.388 14.4688 31.9844 16.0443 31.9844 18.2578C31.9844 20.7188 32.3945 22.457 33.2148 23.4727C34.0482 24.4883 35.1615 24.9961 36.5547 24.9961C37.5964 24.9961 38.4492 24.7031 39.1133 24.1172C39.7773 23.5182 40.2461 22.4961 40.5195 21.0508L45.9102 21.9688C45.3503 24.4427 44.276 26.3112 42.6875 27.5742C41.099 28.8372 38.9701 29.4688 36.3008 29.4688C33.2669 29.4688 30.8451 28.5117 29.0352 26.5977C27.2383 24.6836 26.3398 22.0339 26.3398 18.6484C26.3398 15.224 27.2448 12.5612 29.0547 10.6602C30.8646 8.74609 33.3125 7.78906 36.3984 7.78906C38.9245 7.78906 40.9297 8.33594 42.4141 9.42969C43.9115 10.5104 44.9857 12.1641 45.6367 14.3906ZM55.2852 0.367188V10.8945C57.056 8.82422 59.1719 7.78906 61.6328 7.78906C62.8958 7.78906 64.0352 8.02344 65.0508 8.49219C66.0664 8.96094 66.8281 9.5599 67.3359 10.2891C67.8568 11.0182 68.2083 11.8255 68.3906 12.7109C68.5859 13.5964 68.6836 14.9701 68.6836 16.832V29H63.1953V18.043C63.1953 15.8685 63.0911 14.4883 62.8828 13.9023C62.6745 13.3164 62.3034 12.8542 61.7695 12.5156C61.2487 12.1641 60.5911 11.9883 59.7969 11.9883C58.8854 11.9883 58.0716 12.2096 57.3555 12.6523C56.6393 13.0951 56.112 13.7656 55.7734 14.6641C55.4479 15.5495 55.2852 16.8646 55.2852 18.6094V29H49.7969V0.367188H55.2852ZM73 18.3359C73 16.513 73.4492 14.7487 74.3477 13.043C75.2461 11.3372 76.5156 10.0352 78.1562 9.13672C79.8099 8.23828 81.6523 7.78906 83.6836 7.78906C86.8216 7.78906 89.3932 8.8112 91.3984 10.8555C93.4036 12.8867 94.4062 15.4583 94.4062 18.5703C94.4062 21.7083 93.3906 24.3125 91.3594 26.3828C89.3411 28.4401 86.7956 29.4688 83.7227 29.4688C81.8216 29.4688 80.0052 29.0391 78.2734 28.1797C76.5547 27.3203 75.2461 26.0638 74.3477 24.4102C73.4492 22.7435 73 20.7188 73 18.3359ZM78.625 18.6289C78.625 20.6862 79.1133 22.2617 80.0898 23.3555C81.0664 24.4492 82.2708 24.9961 83.7031 24.9961C85.1354 24.9961 86.3333 24.4492 87.2969 23.3555C88.2734 22.2617 88.7617 20.6732 88.7617 18.5898C88.7617 16.5586 88.2734 14.9961 87.2969 13.9023C86.3333 12.8086 85.1354 12.2617 83.7031 12.2617C82.2708 12.2617 81.0664 12.8086 80.0898 13.9023C79.1133 14.9961 78.625 16.5716 78.625 18.6289ZM102.824 29L95.9883 0.367188H101.906L106.223 20.0352L111.457 0.367188H118.332L123.352 20.3672L127.746 0.367188H133.566L126.613 29H120.48L114.777 7.59375L109.094 29H102.824ZM139.113 14.5859L134.133 13.6875C134.693 11.6823 135.656 10.1979 137.023 9.23438C138.391 8.27083 140.422 7.78906 143.117 7.78906C145.565 7.78906 147.388 8.08203 148.586 8.66797C149.784 9.24089 150.624 9.97656 151.105 10.875C151.6 11.7604 151.848 13.3945 151.848 15.7773L151.789 22.1836C151.789 24.0065 151.874 25.3542 152.043 26.2266C152.225 27.0859 152.557 28.0104 153.039 29H147.609C147.466 28.6354 147.29 28.0951 147.082 27.3789C146.991 27.0534 146.926 26.8385 146.887 26.7344C145.949 27.6458 144.947 28.3294 143.879 28.7852C142.811 29.2409 141.672 29.4688 140.461 29.4688C138.326 29.4688 136.639 28.8893 135.402 27.7305C134.178 26.5716 133.566 25.1068 133.566 23.3359C133.566 22.1641 133.846 21.1224 134.406 20.2109C134.966 19.2865 135.747 18.5833 136.75 18.1016C137.766 17.6068 139.224 17.1771 141.125 16.8125C143.69 16.3307 145.467 15.8815 146.457 15.4648V14.918C146.457 13.8633 146.197 13.1146 145.676 12.6719C145.155 12.2161 144.172 11.9883 142.727 11.9883C141.75 11.9883 140.988 12.1836 140.441 12.5742C139.895 12.9518 139.452 13.6224 139.113 14.5859ZM146.457 19.0391C145.754 19.2734 144.641 19.5534 143.117 19.8789C141.594 20.2044 140.598 20.5234 140.129 20.8359C139.413 21.3438 139.055 21.9883 139.055 22.7695C139.055 23.5378 139.341 24.2018 139.914 24.7617C140.487 25.3216 141.216 25.6016 142.102 25.6016C143.091 25.6016 144.035 25.276 144.934 24.625C145.598 24.1302 146.034 23.5247 146.242 22.8086C146.385 22.3398 146.457 21.4479 146.457 20.1328V19.0391ZM162.98 29L154.621 8.25781H160.383L164.289 18.8438L165.422 22.3789C165.721 21.4805 165.91 20.888 165.988 20.6016C166.171 20.0156 166.366 19.4297 166.574 18.8438L170.52 8.25781H176.164L167.922 29H162.98ZM191.555 22.3984L197.023 23.3164C196.32 25.3216 195.207 26.8516 193.684 27.9062C192.173 28.9479 190.279 29.4688 188 29.4688C184.393 29.4688 181.724 28.2904 179.992 25.9336C178.625 24.0456 177.941 21.6628 177.941 18.7852C177.941 15.3477 178.84 12.6589 180.637 10.7188C182.434 8.76562 184.706 7.78906 187.453 7.78906C190.539 7.78906 192.974 8.8112 194.758 10.8555C196.542 12.8867 197.395 16.0052 197.316 20.2109H183.566C183.605 21.8385 184.048 23.1081 184.895 24.0195C185.741 24.918 186.796 25.3672 188.059 25.3672C188.918 25.3672 189.641 25.1328 190.227 24.6641C190.812 24.1953 191.255 23.4401 191.555 22.3984ZM191.867 16.8516C191.828 15.263 191.418 14.0586 190.637 13.2383C189.855 12.4049 188.905 11.9883 187.785 11.9883C186.587 11.9883 185.598 12.4245 184.816 13.2969C184.035 14.1693 183.651 15.3542 183.664 16.8516H191.867Z" fill="white"/>
</svg>
