<svg width="32" height="32" viewBox="0 0 32 32" fill="none" xmlns="http://www.w3.org/2000/svg">
<path fill-rule="evenodd" clip-rule="evenodd" d="M28.8 12.8C28.8 12.3756 28.6315 11.9687 28.3314 11.6686C28.0314 11.3686 27.6244 11.2 27.2 11.2H10.7072C10.2829 11.2 9.87594 11.3686 9.57588 11.6686C9.27582 11.9687 9.10725 12.3756 9.10725 12.8C9.10725 13.2243 9.27582 13.6313 9.57588 13.9314C9.87594 14.2314 10.2829 14.4 10.7072 14.4H27.2C27.6244 14.4 28.0314 14.2314 28.3314 13.9314C28.6315 13.6313 28.8 13.2243 28.8 12.8ZM28.8 6.39999C28.8 5.97564 28.6315 5.56868 28.3314 5.26862C28.0314 4.96856 27.6244 4.79999 27.2 4.79999H4.80005C4.3757 4.79999 3.96873 4.96856 3.66868 5.26862C3.36862 5.56868 3.20005 5.97564 3.20005 6.39999C3.20005 6.82433 3.36862 7.2313 3.66868 7.53136C3.96873 7.83142 4.3757 7.99999 4.80005 7.99999H27.2C27.6244 7.99999 28.0314 7.83142 28.3314 7.53136C28.6315 7.2313 28.8 6.82433 28.8 6.39999ZM28.8 19.2C28.8 18.7756 28.6315 18.3687 28.3314 18.0686C28.0314 17.7686 27.6244 17.6 27.2 17.6H4.80005C4.3757 17.6 3.96873 17.7686 3.66868 18.0686C3.36862 18.3687 3.20005 18.7756 3.20005 19.2C3.20005 19.6243 3.36862 20.0313 3.66868 20.3314C3.96873 20.6314 4.3757 20.8 4.80005 20.8H27.2C27.6244 20.8 28.0314 20.6314 28.3314 20.3314C28.6315 20.0313 28.8 19.6243 28.8 19.2ZM28.8 25.6C28.8 25.1756 28.6315 24.7687 28.3314 24.4686C28.0314 24.1686 27.6244 24 27.2 24H10.7072C10.2829 24 9.87594 24.1686 9.57588 24.4686C9.27582 24.7687 9.10725 25.1756 9.10725 25.6C9.10725 26.0243 9.27582 26.4313 9.57588 26.7314C9.87594 27.0314 10.2829 27.2 10.7072 27.2H27.2C27.6244 27.2 28.0314 27.0314 28.3314 26.7314C28.6315 26.4313 28.8 26.0243 28.8 25.6Z" fill="white"/>
</svg>
