<svg width="24" height="24" viewBox="0 0 24 24" fill="none" xmlns="http://www.w3.org/2000/svg">
<g clip-path="url(#clip0_3054_428)">
<path d="M12 22.75C17.9371 22.75 22.75 17.9371 22.75 12C22.75 6.06294 17.9371 1.25 12 1.25C6.06294 1.25 1.25 6.06294 1.25 12C1.25 17.9371 6.06294 22.75 12 22.75Z" stroke="black" stroke-linecap="round" stroke-linejoin="round"/>
<path d="M4.39878 19.6009L19.6008 4.39893M1.30078 13.0464L2.74728 11.5324L4.28928 13.8319L5.83178 6.09343L7.37378 18.0374L8.91578 10.0464L10.4578 14.2804L11.9998 10.5514L13.5418 13.4109L15.0838 7.85993L16.6258 16.7754L18.1678 5.08393L19.7103 15.4299L21.2523 9.90643L22.7498 11.9999" stroke="black" stroke-linecap="round" stroke-linejoin="round"/>
</g>
<defs>
<clipPath id="clip0_3054_428">
<rect width="24" height="24" fill="white"/>
</clipPath>
</defs>
</svg>
