<svg width="69" height="69" viewBox="0 0 69 69" fill="none" xmlns="http://www.w3.org/2000/svg">
<g clip-path="url(#clip0_10_171)">
<path d="M46.3335 16.1957C47.1539 17.0229 47.7716 18.0288 48.1383 19.1347L49.3199 22.7615C49.4177 23.0421 49.6004 23.2853 49.8427 23.4574C50.0849 23.6295 50.3747 23.722 50.6719 23.722C50.969 23.722 51.2588 23.6295 51.5011 23.4574C51.7433 23.2853 51.926 23.0421 52.0238 22.7615L53.2055 19.1347C53.5729 18.0316 54.1924 17.0293 55.0147 16.2074C55.837 15.3855 56.8395 14.7665 57.9427 14.3995L61.5739 13.2201C61.8535 13.1213 62.0956 12.9382 62.2668 12.6961C62.4381 12.4539 62.53 12.1647 62.53 11.8681C62.53 11.5716 62.4381 11.2823 62.2668 11.0402C62.0956 10.798 61.8535 10.615 61.5739 10.5161L61.5006 10.4989L57.8716 9.31942C56.768 8.95277 55.765 8.3339 54.9423 7.51195C54.1196 6.69 53.4998 5.68759 53.1322 4.5843L51.9527 0.957485C51.8543 0.677127 51.6713 0.434246 51.4289 0.262415C51.1865 0.090585 50.8968 -0.00170898 50.5996 -0.00170898C50.3025 -0.00170898 50.0128 0.090585 49.7704 0.262415C49.528 0.434246 49.345 0.677127 49.2466 0.957485L48.0671 4.5843L48.0369 4.67486C47.6679 5.75041 47.0586 6.72771 46.2553 7.5325C45.452 8.33729 44.4759 8.94841 43.401 9.31942L39.7699 10.4989C39.4903 10.5977 39.2482 10.7808 39.0769 11.0229C38.9057 11.265 38.8137 11.5543 38.8137 11.8509C38.8137 12.1474 38.9057 12.4367 39.0769 12.6788C39.2482 12.9209 39.4903 13.104 39.7699 13.2028L43.401 14.3801C44.5072 14.7489 45.512 15.372 46.3335 16.1957ZM66.4578 26.647L68.4372 27.2896L68.4782 27.2982C68.6314 27.3514 68.7643 27.451 68.8583 27.5831C68.9524 27.7153 69.0029 27.8735 69.0029 28.0357C69.0029 28.1979 68.9524 28.356 68.8583 28.4882C68.7643 28.6204 68.6314 28.7199 68.4782 28.7731L66.4966 29.4178C65.8958 29.619 65.3498 29.9568 64.9015 30.4046C64.4533 30.8525 64.1151 31.3982 63.9134 31.9989L63.2687 33.9783C63.2145 34.1306 63.1146 34.2623 62.9825 34.3555C62.8505 34.4486 62.6928 34.4987 62.5312 34.4987C62.3697 34.4987 62.212 34.4486 62.08 34.3555C61.9479 34.2623 61.848 34.1306 61.7938 33.9783L61.1491 31.9989C60.9504 31.3954 60.6133 30.8467 60.1648 30.3967C59.7162 29.9467 59.1687 29.6078 58.5659 29.407L56.5843 28.7645C56.4311 28.7113 56.2982 28.6117 56.2042 28.4796C56.1101 28.3474 56.0596 28.1892 56.0596 28.027C56.0596 27.8648 56.1101 27.7067 56.2042 27.5745C56.2982 27.4424 56.4311 27.3428 56.5843 27.2896L58.5659 26.6449C59.1596 26.4387 59.6978 26.0986 60.139 25.651C60.5802 25.2035 60.9126 24.6604 61.1103 24.0639L61.755 22.0844C61.8092 21.9322 61.9091 21.8004 62.0412 21.7073C62.1732 21.6141 62.3308 21.5641 62.4924 21.5641C62.654 21.5641 62.8117 21.6141 62.9437 21.7073C63.0757 21.8004 63.1757 21.9322 63.2299 22.0844L63.8724 24.0639C64.0728 24.6656 64.4109 25.2122 64.8597 25.6603C65.3085 26.1084 65.8557 26.4477 66.4578 26.647ZM34.5 4.31261C37.6093 4.31261 40.6108 4.78267 43.4333 5.65595C43.1014 5.89368 42.7359 6.08046 42.3487 6.21011L38.8125 7.41761C38.0359 7.66927 37.3386 8.11975 36.7899 8.7243C36.0352 8.65817 35.2719 8.62511 34.5 8.62511C20.2105 8.62511 8.625 20.2106 8.625 34.5001C8.625 48.7896 20.2105 60.3751 34.5 60.3751C47.9679 60.3751 59.0338 50.0855 60.2629 36.9367L60.2887 36.9582C60.9101 37.3908 61.6397 37.6417 62.3957 37.6829C63.1517 37.724 63.9043 37.5537 64.5689 37.1911C63.2083 52.6018 50.2643 64.6876 34.5 64.6876C17.8279 64.6876 4.3125 51.1722 4.3125 34.5001C4.3125 17.828 17.8279 4.31261 34.5 4.31261ZM46.3594 45.2814V24.01C46.7093 24.8664 47.3064 25.5992 48.0744 26.1149C48.8425 26.6307 49.7467 26.906 50.6719 26.9058V45.2814C50.6719 45.8532 50.4447 46.4017 50.0403 46.8061C49.636 47.2104 49.0875 47.4376 48.5156 47.4376C47.9438 47.4376 47.3953 47.2104 46.9909 46.8061C46.5865 46.4017 46.3594 45.8532 46.3594 45.2814ZM29.1094 21.5626C29.6812 21.5626 30.2297 21.7898 30.6341 22.1942C31.0384 22.5985 31.2656 23.147 31.2656 23.7189V45.2814C31.2656 45.8532 31.0384 46.4017 30.6341 46.8061C30.2297 47.2104 29.6812 47.4376 29.1094 47.4376C28.5375 47.4376 27.9891 47.2104 27.5847 46.8061C27.1803 46.4017 26.9531 45.8532 26.9531 45.2814V23.7189C26.9531 23.147 27.1803 22.5985 27.5847 22.1942C27.9891 21.7898 28.5375 21.5626 29.1094 21.5626ZM38.8125 26.9532C39.3844 26.9532 39.9328 27.1804 40.3372 27.5848C40.7416 27.9892 40.9688 28.5376 40.9688 29.1095V39.8907C40.9688 40.4626 40.7416 41.0111 40.3372 41.4154C39.9328 41.8198 39.3844 42.047 38.8125 42.047C38.2406 42.047 37.6922 41.8198 37.2878 41.4154C36.8834 41.0111 36.6562 40.4626 36.6562 39.8907V29.1095C36.6562 28.5376 36.8834 27.9892 37.2878 27.5848C37.6922 27.1804 38.2406 26.9532 38.8125 26.9532ZM21.5625 30.1876C21.5625 29.6157 21.3353 29.0673 20.9309 28.6629C20.5266 28.2585 19.9781 28.0314 19.4062 28.0314C18.8344 28.0314 18.2859 28.2585 17.8816 28.6629C17.4772 29.0673 17.25 29.6157 17.25 30.1876V38.8126C17.25 39.3845 17.4772 39.9329 17.8816 40.3373C18.2859 40.7417 18.8344 40.9689 19.4062 40.9689C19.9781 40.9689 20.5266 40.7417 20.9309 40.3373C21.3353 39.9329 21.5625 39.3845 21.5625 38.8126V30.1876Z" fill="#803901"/>
</g>
<defs>
<clipPath id="clip0_10_171">
<rect width="69" height="69" fill="white"/>
</clipPath>
</defs>
</svg>
