<svg width="67" height="67" viewBox="0 0 67 67" fill="none" xmlns="http://www.w3.org/2000/svg">
<path fill-rule="evenodd" clip-rule="evenodd" d="M23.6443 36.3675C23.7138 35.8797 23.6027 35.3834 23.3318 34.9719C23.061 34.5604 22.6491 34.2621 22.1737 34.133C21.9475 34.0778 21.7121 34.0713 21.4833 34.114C21.2544 34.1567 21.0372 34.2476 20.8462 34.3807C20.6551 34.5138 20.4946 34.686 20.3752 34.8858C20.2558 35.0857 20.1802 35.3087 20.1536 35.54V35.5501L20.1503 35.5635L20.1436 35.597C20.1236 35.7527 20.109 35.9092 20.1 36.066C20.0722 36.4607 20.0677 36.8566 20.0866 37.2519C20.1302 38.1999 20.3144 39.5332 20.9442 40.8632C21.5707 42.1864 22.4752 43.168 23.172 43.7978C23.5784 44.1655 24.0142 44.4994 24.4751 44.7961L24.5053 44.8128L24.5153 44.8195L24.522 44.8229L25.3059 43.2082L24.5254 44.8262C24.7214 44.9514 24.9418 45.0335 25.172 45.0671C25.4021 45.1007 25.6368 45.0849 25.8604 45.021C26.0841 44.957 26.2915 44.8462 26.4691 44.696C26.6467 44.5457 26.7903 44.3595 26.8905 44.1495C27.0929 43.6984 27.1228 43.1888 26.9747 42.7171C26.8265 42.2454 26.5105 41.8444 26.0865 41.5901L26.0965 41.5968L26.0697 41.5801L25.919 41.4762C25.7221 41.3347 25.5332 41.1826 25.3528 41.0206C24.8252 40.5607 24.3927 40.0019 24.0798 39.3758C23.7928 38.7316 23.6357 38.0372 23.6175 37.3323C23.6039 37.0228 23.6117 36.7127 23.641 36.4043L23.6443 36.3675Z" fill="#803901"/>
<path fill-rule="evenodd" clip-rule="evenodd" d="M44.6455 5.49731C46.4545 6.40181 45.6572 8.01316 44.813 9.70826C43.8951 11.5642 42.9236 13.5206 45.3021 14.7467C49.5017 16.9145 52.9642 20.2791 55.2516 24.4148C57.539 28.5506 58.5486 33.2717 58.1528 37.9813C57.757 42.6909 55.9735 47.1773 53.0279 50.8732C50.0822 54.5691 46.1068 57.3086 41.6042 58.7451C37.1017 60.1816 32.2742 60.2507 27.7324 58.9435C23.1906 57.6364 19.1384 55.0118 16.0883 51.4017C13.0381 47.7915 11.127 43.358 10.5966 38.6617C10.0662 33.9654 10.9404 29.2172 13.1086 25.0178C16.6931 18.0732 26.8503 8.07011 42.9805 5.71171C43.5277 5.63131 44.0849 5.55985 44.6455 5.49731ZM41.2419 9.41346C27.5504 12.1471 19.0481 20.8135 16.08 26.5554C14.2158 30.1661 13.4642 34.2485 13.9202 38.2864C14.3761 42.3243 16.0192 46.1363 18.6417 49.2403C21.2642 52.3444 24.7482 54.601 28.6532 55.725C32.5583 56.8489 36.7089 56.7896 40.5802 55.5546C44.4515 54.3196 47.8697 51.9644 50.4024 48.7867C52.9352 45.609 54.4688 41.7517 54.8092 37.7024C55.1497 33.6532 54.2818 29.5939 52.3152 26.0379C50.3487 22.4819 47.3718 19.5889 43.7611 17.7248C42.7603 17.2325 41.9091 16.4819 41.2955 15.5507C40.7159 14.6373 40.4263 13.5698 40.4647 12.4888C40.4948 11.333 40.8801 10.2376 41.2419 9.41346Z" fill="#803901" stroke="#803901"/>
<path d="M3.85251 6.29137C3.52955 5.96797 3.34829 5.52951 3.3486 5.07247C3.34892 4.61542 3.53078 4.17721 3.85419 3.85425C4.17759 3.53129 4.61604 3.35003 5.07309 3.35034C5.53014 3.35066 5.96835 3.53252 6.29131 3.85592L63.1442 60.7088C63.4671 61.0317 63.6486 61.4698 63.6486 61.9265C63.6486 62.3832 63.4671 62.8213 63.1442 63.1442C62.8212 63.4672 62.3832 63.6486 61.9264 63.6486C61.4697 63.6486 61.0317 63.4672 60.7087 63.1442L3.85251 6.29137Z" fill="#803901" stroke="#803901"/>
</svg>
